<svg width="115" height="20" viewBox="0 0 115 20" fill="none" xmlns="http://www.w3.org/2000/svg">
<path d="M16.82 2.4C17.2333 2.48 17.54 2.62 17.74 2.82C17.9533 3.02 18.06 3.25333 18.06 3.52C18.06 3.96 17.9333 4.28 17.68 4.48C17.44 4.68 17.0533 4.76 16.52 4.72C15.32 4.62667 14.38 4.56667 13.7 4.54C13.0333 4.5 12.1533 4.47333 11.06 4.46C10.5667 6.91333 10.1133 9.38 9.7 11.86C9.55333 12.7667 9.4 13.82 9.24 15.02C9.08 16.2067 8.97333 17.1667 8.92 17.9C8.89333 18.2867 8.73333 18.5867 8.44 18.8C8.14667 19 7.79333 19.1 7.38 19.1C6.94 19.1 6.6 18.9933 6.36 18.78C6.12 18.5667 6 18.2867 6 17.94C6 17.62 6.04667 17.0933 6.14 16.36C6.24667 15.6133 6.36667 14.8333 6.5 14.02C6.64667 13.2067 6.76 12.5 6.84 11.9C6.98667 10.8867 7.15333 9.88 7.34 8.88C7.52667 7.88 7.71333 6.93333 7.9 6.04C7.94 5.84 7.98667 5.61333 8.04 5.36C8.09333 5.09333 8.15333 4.8 8.22 4.48C6.91333 4.52 5.88667 4.62667 5.14 4.8C4.39333 4.97333 3.86 5.22 3.54 5.54C3.23333 5.84667 3.08 6.24667 3.08 6.74C3.08 7.19333 3.21333 7.62667 3.48 8.04C3.53333 8.13333 3.56 8.23333 3.56 8.34C3.56 8.59333 3.40667 8.83333 3.1 9.06C2.80667 9.27333 2.5 9.38 2.18 9.38C1.95333 9.38 1.76667 9.31333 1.62 9.18C1.35333 8.95333 1.13333 8.63333 0.96 8.22C0.786667 7.79333 0.7 7.31333 0.7 6.78C0.7 5.64667 1.06667 4.74 1.8 4.06C2.54667 3.36667 3.67333 2.86 5.18 2.54C6.7 2.22 8.64667 2.06 11.02 2.06C12.4867 2.06 13.6533 2.08667 14.52 2.14C15.4 2.19333 16.1667 2.28 16.82 2.4ZM16.9198 8.36C16.3598 8.36 15.9398 8.23333 15.6598 7.98C15.3798 7.71333 15.2398 7.34667 15.2398 6.88C15.2398 6.41333 15.4198 6.02667 15.7798 5.72C16.1532 5.4 16.6132 5.24 17.1598 5.24C17.6532 5.24 18.0532 5.36 18.3598 5.6C18.6665 5.84 18.8198 6.18 18.8198 6.62C18.8198 7.15333 18.6465 7.58 18.2998 7.9C17.9532 8.20667 17.4932 8.36 16.9198 8.36ZM16.7598 19.1C15.8932 19.1 15.2598 18.7933 14.8598 18.18C14.4732 17.5667 14.2798 16.7533 14.2798 15.74C14.2798 15.14 14.3532 14.3733 14.4998 13.44C14.6598 12.4933 14.8598 11.6133 15.0998 10.8C15.2198 10.3733 15.3798 10.08 15.5798 9.92C15.7798 9.76 16.0998 9.68 16.5398 9.68C17.2198 9.68 17.5598 9.90667 17.5598 10.36C17.5598 10.6933 17.4332 11.4667 17.1798 12.68C16.8598 14.1467 16.6998 15.14 16.6998 15.66C16.6998 16.06 16.7532 16.3667 16.8598 16.58C16.9665 16.7933 17.1465 16.9 17.3998 16.9C17.6398 16.9 17.9398 16.7333 18.2998 16.4C18.6598 16.0667 19.1398 15.54 19.7398 14.82C19.8998 14.6333 20.0798 14.54 20.2798 14.54C20.4532 14.54 20.5865 14.62 20.6798 14.78C20.7865 14.94 20.8398 15.16 20.8398 15.44C20.8398 15.9733 20.7132 16.3867 20.4598 16.68C19.1398 18.2933 17.9065 19.1 16.7598 19.1ZM20.6417 19.1C20.1351 19.1 19.7751 18.8333 19.5617 18.3C19.3617 17.7667 19.2617 16.9133 19.2617 15.74C19.2617 14.0067 19.5084 12.36 20.0017 10.8C20.1217 10.4133 20.3151 10.1333 20.5817 9.96C20.8617 9.77333 21.2484 9.68 21.7417 9.68C22.0084 9.68 22.1951 9.71333 22.3017 9.78C22.4084 9.84667 22.4617 9.97333 22.4617 10.16C22.4617 10.3733 22.3617 10.8533 22.1617 11.6C22.0284 12.1333 21.9217 12.6 21.8417 13C21.7617 13.3867 21.6951 13.8733 21.6417 14.46C22.0017 13.42 22.4284 12.54 22.9217 11.82C23.4284 11.1 23.9417 10.5667 24.4617 10.22C24.9951 9.86 25.4951 9.68 25.9617 9.68C26.4284 9.68 26.7551 9.78667 26.9417 10C27.1417 10.2133 27.2417 10.54 27.2417 10.98C27.2417 11.4067 27.1151 12.18 26.8617 13.3C26.7551 13.78 26.6817 14.14 26.6417 14.38C27.3084 12.74 28.0484 11.5467 28.8617 10.8C29.6751 10.0533 30.4351 9.68 31.1417 9.68C32.0084 9.68 32.4417 10.1133 32.4417 10.98C32.4417 11.5 32.2951 12.44 32.0017 13.8C31.7484 14.96 31.6217 15.7267 31.6217 16.1C31.6217 16.6333 31.8151 16.9 32.2017 16.9C32.4684 16.9 32.7817 16.74 33.1417 16.42C33.5151 16.0867 34.0084 15.5533 34.6217 14.82C34.7817 14.6333 34.9617 14.54 35.1617 14.54C35.3351 14.54 35.4684 14.62 35.5617 14.78C35.6684 14.94 35.7217 15.16 35.7217 15.44C35.7217 15.9733 35.5951 16.3867 35.3417 16.68C34.7684 17.3867 34.1484 17.9667 33.4817 18.42C32.8284 18.8733 32.0817 19.1 31.2417 19.1C30.5617 19.1 30.0484 18.9067 29.7017 18.52C29.3551 18.12 29.1817 17.5467 29.1817 16.8C29.1817 16.4267 29.2751 15.76 29.4617 14.8C29.6351 13.96 29.7217 13.38 29.7217 13.06C29.7217 12.8467 29.6484 12.74 29.5017 12.74C29.3284 12.74 29.0817 12.9667 28.7617 13.42C28.4417 13.86 28.1217 14.4467 27.8017 15.18C27.4817 15.9133 27.2217 16.6867 27.0217 17.5C26.8751 18.14 26.7017 18.5667 26.5017 18.78C26.3151 18.9933 26.0084 19.1 25.5817 19.1C25.1417 19.1 24.8084 18.8933 24.5817 18.48C24.3684 18.0533 24.2617 17.54 24.2617 16.94C24.2617 16.4333 24.3284 15.7 24.4617 14.74C24.5684 13.8867 24.6217 13.3267 24.6217 13.06C24.6217 12.8467 24.5484 12.74 24.4017 12.74C24.2017 12.74 23.9484 12.98 23.6417 13.46C23.3351 13.94 23.0351 14.5533 22.7417 15.3C22.4617 16.0467 22.2351 16.78 22.0617 17.5C21.9151 18.1267 21.7417 18.5533 21.5417 18.78C21.3551 18.9933 21.0551 19.1 20.6417 19.1ZM41.2645 15.14C41.4379 15.14 41.5712 15.22 41.6645 15.38C41.7712 15.54 41.8245 15.76 41.8245 16.04C41.8245 16.52 41.7112 16.9333 41.4845 17.28C41.1112 17.8533 40.6179 18.3 40.0045 18.62C39.4045 18.94 38.6845 19.1 37.8445 19.1C36.5645 19.1 35.5712 18.72 34.8645 17.96C34.1579 17.1867 33.8045 16.1467 33.8045 14.84C33.8045 13.92 33.9979 13.0667 34.3845 12.28C34.7712 11.48 35.3045 10.8467 35.9845 10.38C36.6779 9.91333 37.4579 9.68 38.3245 9.68C39.0979 9.68 39.7179 9.91333 40.1845 10.38C40.6512 10.8333 40.8845 11.4533 40.8845 12.24C40.8845 13.16 40.5512 13.9533 39.8845 14.62C39.2312 15.2733 38.1112 15.7933 36.5245 16.18C36.8445 16.7933 37.3845 17.1 38.1445 17.1C38.6912 17.1 39.1379 16.9733 39.4845 16.72C39.8445 16.4667 40.2579 16.04 40.7245 15.44C40.8845 15.24 41.0645 15.14 41.2645 15.14ZM37.9845 11.64C37.4912 11.64 37.0712 11.9267 36.7245 12.5C36.3912 13.0733 36.2245 13.7667 36.2245 14.58V14.62C37.0112 14.4333 37.6312 14.1533 38.0845 13.78C38.5379 13.4067 38.7645 12.9733 38.7645 12.48C38.7645 12.2267 38.6912 12.0267 38.5445 11.88C38.4112 11.72 38.2245 11.64 37.9845 11.64ZM63.4802 2.4C63.8935 2.48 64.2002 2.62 64.4002 2.82C64.6135 3.02 64.7202 3.25333 64.7202 3.52C64.7202 3.96 64.5935 4.28 64.3402 4.48C64.1002 4.68 63.7135 4.76 63.1802 4.72C61.9802 4.62667 61.0402 4.56667 60.3602 4.54C59.6935 4.5 58.8135 4.47333 57.7202 4.46C57.2268 6.91333 56.7735 9.38 56.3602 11.86C56.2135 12.7667 56.0602 13.82 55.9002 15.02C55.7402 16.2067 55.6335 17.1667 55.5802 17.9C55.5535 18.2867 55.3935 18.5867 55.1002 18.8C54.8068 19 54.4535 19.1 54.0402 19.1C53.6002 19.1 53.2602 18.9933 53.0202 18.78C52.7802 18.5667 52.6602 18.2867 52.6602 17.94C52.6602 17.62 52.7068 17.0933 52.8002 16.36C52.9068 15.6133 53.0268 14.8333 53.1602 14.02C53.3068 13.2067 53.4202 12.5 53.5002 11.9C53.6468 10.8867 53.8135 9.88 54.0002 8.88C54.1868 7.88 54.3735 6.93333 54.5602 6.04C54.6002 5.84 54.6468 5.61333 54.7002 5.36C54.7535 5.09333 54.8135 4.8 54.8802 4.48C53.5735 4.52 52.5468 4.62667 51.8002 4.8C51.0535 4.97333 50.5202 5.22 50.2002 5.54C49.8935 5.84667 49.7402 6.24667 49.7402 6.74C49.7402 7.19333 49.8735 7.62667 50.1402 8.04C50.1935 8.13333 50.2202 8.23333 50.2202 8.34C50.2202 8.59333 50.0668 8.83333 49.7602 9.06C49.4668 9.27333 49.1602 9.38 48.8402 9.38C48.6135 9.38 48.4268 9.31333 48.2802 9.18C48.0135 8.95333 47.7935 8.63333 47.6202 8.22C47.4468 7.79333 47.3602 7.31333 47.3602 6.78C47.3602 5.64667 47.7268 4.74 48.4602 4.06C49.2068 3.36667 50.3335 2.86 51.8402 2.54C53.3602 2.22 55.3068 2.06 57.6802 2.06C59.1468 2.06 60.3135 2.08667 61.1802 2.14C62.0602 2.19333 62.8268 2.28 63.4802 2.4ZM62.38 19.1C61.8733 19.1 61.5133 18.8333 61.3 18.3C61.1 17.7667 61 16.9133 61 15.74C61 14.0067 61.2467 12.36 61.74 10.8C61.86 10.4133 62.0533 10.1333 62.32 9.96C62.6 9.77333 62.9867 9.68 63.48 9.68C63.7467 9.68 63.9333 9.71333 64.04 9.78C64.1467 9.84667 64.2 9.97333 64.2 10.16C64.2 10.3733 64.1 10.8533 63.9 11.6C63.7667 12.1333 63.66 12.6 63.58 13C63.5 13.4 63.4333 13.8933 63.38 14.48C63.82 13.3333 64.3133 12.4 64.86 11.68C65.4067 10.96 65.94 10.4467 66.46 10.14C66.9933 9.83333 67.48 9.68 67.92 9.68C68.7867 9.68 69.22 10.1133 69.22 10.98C69.22 11.1533 69.16 11.5733 69.04 12.24C68.9333 12.7733 68.88 13.1067 68.88 13.24C68.88 13.7067 69.0467 13.94 69.38 13.94C69.7533 13.94 70.2333 13.6467 70.82 13.06C70.9933 12.8867 71.1733 12.8 71.36 12.8C71.5333 12.8 71.6667 12.88 71.76 13.04C71.8667 13.1867 71.92 13.3867 71.92 13.64C71.92 14.1333 71.7867 14.52 71.52 14.8C71.1467 15.1867 70.7067 15.52 70.2 15.8C69.7067 16.0667 69.18 16.2 68.62 16.2C67.9133 16.2 67.3733 16.02 67 15.66C66.64 15.3 66.46 14.8133 66.46 14.2C66.46 14 66.48 13.8 66.52 13.6C66.5467 13.3333 66.56 13.1533 66.56 13.06C66.56 12.8467 66.4867 12.74 66.34 12.74C66.14 12.74 65.8733 12.9667 65.54 13.42C65.22 13.86 64.9 14.4467 64.58 15.18C64.26 15.9133 64 16.6867 63.8 17.5C63.6533 18.1267 63.48 18.5533 63.28 18.78C63.0933 18.9933 62.7933 19.1 62.38 19.1ZM72.5216 19.1C71.6949 19.1 71.0349 18.8 70.5416 18.2C70.0482 17.6 69.8016 16.8133 69.8016 15.84C69.8016 14.7733 70.0482 13.7667 70.5416 12.82C71.0349 11.86 71.6882 11.0933 72.5016 10.52C73.3282 9.93333 74.2016 9.64 75.1216 9.64C75.4149 9.64 75.6082 9.7 75.7016 9.82C75.8082 9.92667 75.8949 10.1267 75.9616 10.42C76.2416 10.3667 76.5349 10.34 76.8416 10.34C77.4949 10.34 77.8216 10.5733 77.8216 11.04C77.8216 11.32 77.7216 11.9867 77.5216 13.04C77.2149 14.5733 77.0616 15.64 77.0616 16.24C77.0616 16.44 77.1082 16.6 77.2016 16.72C77.3082 16.84 77.4416 16.9 77.6016 16.9C77.8549 16.9 78.1616 16.74 78.5216 16.42C78.8816 16.0867 79.3682 15.5533 79.9816 14.82C80.1416 14.6333 80.3216 14.54 80.5216 14.54C80.6949 14.54 80.8282 14.62 80.9216 14.78C81.0282 14.94 81.0816 15.16 81.0816 15.44C81.0816 15.9733 80.9549 16.3867 80.7016 16.68C80.1549 17.36 79.5749 17.9333 78.9616 18.4C78.3482 18.8667 77.7549 19.1 77.1816 19.1C76.7416 19.1 76.3349 18.9533 75.9616 18.66C75.6016 18.3533 75.3282 17.94 75.1416 17.42C74.4482 18.54 73.5749 19.1 72.5216 19.1ZM73.2416 17.08C73.5349 17.08 73.8149 16.9067 74.0816 16.56C74.3482 16.2133 74.5416 15.7533 74.6616 15.18L75.4016 11.5C74.8416 11.5133 74.3216 11.7267 73.8416 12.14C73.3749 12.54 73.0016 13.0733 72.7216 13.74C72.4416 14.4067 72.3016 15.1133 72.3016 15.86C72.3016 16.2733 72.3816 16.58 72.5416 16.78C72.7149 16.98 72.9482 17.08 73.2416 17.08ZM83.2761 19.1C81.9694 19.1 80.9494 18.7333 80.2161 18C79.4961 17.2533 79.1361 16.2733 79.1361 15.06C79.1361 13.98 79.3494 13.0333 79.7761 12.22C80.2028 11.4067 80.7561 10.78 81.4361 10.34C82.1161 9.9 82.8294 9.68 83.5761 9.68C84.3094 9.68 84.8761 9.9 85.2761 10.34C85.6894 10.7667 85.8961 11.32 85.8961 12C85.8961 12.56 85.7694 13.0333 85.5161 13.42C85.2761 13.8067 84.9561 14 84.5561 14C84.3028 14 84.0961 13.94 83.9361 13.82C83.7894 13.7 83.7161 13.5333 83.7161 13.32C83.7161 13.2267 83.7294 13.12 83.7561 13C83.7828 12.88 83.8028 12.7933 83.8161 12.74C83.8828 12.54 83.9161 12.3533 83.9161 12.18C83.9161 12.0067 83.8694 11.8733 83.7761 11.78C83.6961 11.6867 83.5761 11.64 83.4161 11.64C83.1094 11.64 82.8228 11.78 82.5561 12.06C82.2894 12.3267 82.0761 12.6933 81.9161 13.16C81.7561 13.6267 81.6761 14.14 81.6761 14.7C81.6761 16.2467 82.3494 17.02 83.6961 17.02C84.2428 17.02 84.8294 16.84 85.4561 16.48C86.0961 16.1067 86.7228 15.5533 87.3361 14.82C87.4961 14.6333 87.6761 14.54 87.8761 14.54C88.0494 14.54 88.1828 14.62 88.2761 14.78C88.3828 14.94 88.4361 15.16 88.4361 15.44C88.4361 15.9467 88.3094 16.36 88.0561 16.68C87.4294 17.4533 86.6761 18.0533 85.7961 18.48C84.9294 18.8933 84.0894 19.1 83.2761 19.1ZM98.3794 14.54C98.5527 14.54 98.686 14.62 98.7794 14.78C98.886 14.94 98.9394 15.16 98.9394 15.44C98.9394 15.9733 98.8127 16.3867 98.5594 16.68C97.9594 17.4133 97.3527 18 96.7394 18.44C96.126 18.88 95.3994 19.1 94.5594 19.1C93.5327 19.1 92.706 18.8067 92.0794 18.22C91.4527 17.6333 91.1394 16.8533 91.1394 15.88C91.1394 15.36 91.406 14.9867 91.9394 14.76C92.526 14.5067 92.946 14.24 93.1994 13.96C93.4527 13.6667 93.5794 13.3133 93.5794 12.9C93.5794 12.66 93.526 12.48 93.4194 12.36C93.326 12.24 93.206 12.18 93.0594 12.18C92.6994 12.18 92.2994 12.44 91.8594 12.96C91.4327 13.48 91.0327 14.1533 90.6594 14.98C90.286 15.7933 89.9927 16.6333 89.7794 17.5C89.6327 18.1267 89.4594 18.5533 89.2594 18.78C89.0727 18.9933 88.7727 19.1 88.3594 19.1C87.946 19.1 87.6394 18.9533 87.4394 18.66C87.2527 18.3533 87.126 17.8867 87.0594 17.26C86.9927 16.6333 86.9594 15.7133 86.9594 14.5C86.9594 12.4467 87.166 10.3067 87.5794 8.08C88.006 5.85333 88.626 3.98667 89.4394 2.48C90.266 0.959999 91.2527 0.199999 92.3994 0.199999C93.0127 0.199999 93.506 0.466666 93.8794 0.999999C94.266 1.52 94.4594 2.2 94.4594 3.04C94.4594 4.38667 94.066 5.78667 93.2794 7.24C92.4927 8.68 91.2127 10.3667 89.4394 12.3C89.3994 12.9933 89.3794 13.7067 89.3794 14.44C90.0194 12.7733 90.7527 11.5667 91.5794 10.82C92.406 10.06 93.1794 9.68 93.8994 9.68C94.566 9.68 95.0994 9.90667 95.4994 10.36C95.9127 10.8133 96.1194 11.3733 96.1194 12.04C96.1194 12.7733 95.9327 13.4467 95.5594 14.06C95.186 14.6733 94.546 15.22 93.6394 15.7C93.6927 16.06 93.8527 16.3533 94.1194 16.58C94.3994 16.7933 94.7327 16.9 95.1194 16.9C95.5327 16.9 95.9327 16.74 96.3194 16.42C96.706 16.1 97.2127 15.5667 97.8394 14.82C97.9994 14.6333 98.1794 14.54 98.3794 14.54ZM91.9794 2.18C91.7394 2.18 91.4727 2.52667 91.1794 3.22C90.886 3.9 90.5994 4.82667 90.3194 6C90.0527 7.16 89.8327 8.42667 89.6594 9.8C90.486 8.82667 91.166 7.76667 91.6994 6.62C92.246 5.47333 92.5194 4.43333 92.5194 3.5C92.5194 3.07333 92.4727 2.74667 92.3794 2.52C92.286 2.29333 92.1527 2.18 91.9794 2.18ZM106.247 14.54C106.421 14.54 106.554 14.62 106.647 14.78C106.754 14.94 106.807 15.16 106.807 15.44C106.807 15.9733 106.681 16.3867 106.427 16.68C105.934 17.28 105.234 17.8333 104.327 18.34C103.434 18.8467 102.474 19.1 101.447 19.1C100.047 19.1 98.9605 18.72 98.1872 17.96C97.4139 17.2 97.0272 16.16 97.0272 14.84C97.0272 13.92 97.2205 13.0667 97.6072 12.28C97.9939 11.48 98.5272 10.8467 99.2072 10.38C99.9005 9.91333 100.681 9.68 101.547 9.68C102.321 9.68 102.941 9.91333 103.407 10.38C103.874 10.8333 104.107 11.4533 104.107 12.24C104.107 13.16 103.774 13.9533 103.107 14.62C102.454 15.2733 101.341 15.7933 99.7672 16.18C100.101 16.7933 100.734 17.1 101.667 17.1C102.267 17.1 102.947 16.8933 103.707 16.48C104.481 16.0533 105.147 15.5 105.707 14.82C105.867 14.6333 106.047 14.54 106.247 14.54ZM101.207 11.64C100.714 11.64 100.294 11.9267 99.9472 12.5C99.6139 13.0733 99.4472 13.7667 99.4472 14.58V14.62C100.234 14.4333 100.854 14.1533 101.307 13.78C101.761 13.4067 101.987 12.9733 101.987 12.48C101.987 12.2267 101.914 12.0267 101.767 11.88C101.634 11.72 101.447 11.64 101.207 11.64ZM113.259 12.42C113.552 12.42 113.799 12.5267 113.999 12.74C114.212 12.94 114.319 13.1933 114.319 13.5C114.319 13.6733 114.279 13.86 114.199 14.06C113.985 14.5533 113.685 14.9667 113.299 15.3C112.912 15.6333 112.485 15.8 112.019 15.8C111.645 15.8 111.325 15.6667 111.059 15.4C110.805 15.1333 110.679 14.7733 110.679 14.32C110.679 14.0667 110.692 13.7933 110.719 13.5C110.745 13.2867 110.759 13.14 110.759 13.06C110.759 12.9533 110.732 12.8733 110.679 12.82C110.639 12.7667 110.585 12.74 110.519 12.74C110.332 12.74 110.079 12.9667 109.759 13.42C109.439 13.86 109.119 14.4467 108.799 15.18C108.479 15.9133 108.219 16.6867 108.019 17.5C107.872 18.14 107.705 18.5667 107.519 18.78C107.332 18.9933 107.025 19.1 106.599 19.1C106.092 19.1 105.732 18.8333 105.519 18.3C105.319 17.7667 105.219 16.9133 105.219 15.74C105.219 14.0067 105.465 12.36 105.959 10.8C106.079 10.4133 106.272 10.1333 106.539 9.96C106.819 9.77333 107.205 9.68 107.699 9.68C107.965 9.68 108.152 9.71333 108.259 9.78C108.365 9.84667 108.419 9.97333 108.419 10.16C108.419 10.3733 108.319 10.8533 108.119 11.6C107.985 12.1333 107.879 12.6 107.799 13C107.719 13.4 107.652 13.8933 107.599 14.48C108.039 13.3333 108.532 12.4 109.079 11.68C109.625 10.96 110.159 10.4467 110.679 10.14C111.199 9.83333 111.672 9.68 112.099 9.68C112.485 9.68 112.779 9.79333 112.979 10.02C113.192 10.2333 113.299 10.5533 113.299 10.98C113.299 11.2333 113.225 11.7133 113.079 12.42H113.259Z" fill="white"/>
</svg>
